<svg version="1.0" xmlns="http://www.w3.org/2000/svg" viewBox="0 0 700 700"><g fill="#000000"><path d="M256.5.7c-1.6.2-4.6.6-6.5.9l-3.4.6 3.3 2.9c1.9 1.6 8.8 8 15.5 14.2 6.6 6.1 13.8 12.8 15.9 14.7 2.1 1.9 5.2 4.8 6.9 6.5l3 3-2.4.6c-1.2.4-3.8.7-5.6.8-5.3.2-29.8 13-46.8 24.6-3.5 2.4-17.7 12.8-18.4 13.5-.3.3-3.9 3.4-8 6.9-15.4 13.3-30.1 30.2-39.7 45.6-7 11.1-15.1 30.2-18.2 42.6-3.8 15.3-4.6 21.9-4.6 39.4 0 15.2.8 24.2 3.2 35 .8 3.8 1.6 8 1.9 9.2.9 4.6 6.7 20.2 10.8 28.9 4.8 10.1 9.4 17.6 17.2 28 39.1 52.2 115.9 85.8 195.9 85.8 10.6-.1 35.5-1.3 36.4-1.8.3-.2 3.1-.7 6.2-1 3.1-.4 6.6-.8 7.7-1.1 1.1-.2 3.5-.6 5.3-.9 22.4-3.8 47.3-12.1 68.9-23 6.9-3.4 10.9-6.1 11.7-7.7 2-4.1 5.3-11.8 5.3-12.5 0-1.9 9.9-15 14.6-19.3 9.1-8.3 23.6-15.6 32.7-16.3 4.5-.4 21.6-18.7 27.8-29.8.8-1.4 1.9-3.2 2.6-4 2.9-3.8 11.8-23.2 14.9-32.7 5.6-17.2 7.3-29 7-49.3-.3-14.2-.8-19.8-2.9-30.1-4.9-23.4-14.9-47.5-20.9-50-2-.8-2.8-1.9-2.9-3.8-.1-8.4-.9-19.8-1.3-21.7-.5-1.8-9.2-8.1-21.1-15.1-1.1-.6-5.6-3.3-10-5.9-12.6-7.5-48.6-25.4-64.6-32.2-18.4-7.7-42.6-16.8-51.4-19.2-1.6-.5-9.3-2.7-16.9-4.9-7.7-2.3-15.3-4.4-16.9-4.7-1.7-.3-3.3-.7-3.7-.9-.7-.4-25.2-5.9-30.5-6.9-1.6-.2-4.1-.7-5.5-1-1.3-.3-4.2-.8-6.5-1.1-2.2-.3-4.7-.8-5.5-1-1.6-.4-21.9-3-31-4-3-.3-7.1-.8-9-1.1-4.1-.5-56.1-1.2-60.5-.7zm190 87.8c10.2.9 16.2 1.6 21.7 2.6 11.7 1.9 16.4 2.8 21.8 4 2.5.6 5.3 1.2 6.3 1.4 3 .7 18.8 5.5 26.7 8.2 14 4.9 37.6 16 44.5 21.1l2 1.4-2-.7c-4.6-1.6-28.4-7.4-32.7-7.9-2.6-.4-5.4-.9-6.1-1.2-.8-.3-4 2-7.3 5.1-3.2 3-8.9 7.6-12.6 10l-6.6 4.5-12.3-3.5c-19-5.5-36.4-13.4-50.2-22.7-8-5.5-18.7-14.8-22.7-19.8l-3.3-4.2 13.9.6c7.6.3 16.2.8 18.9 1.1z"/><path d="M218.7 52.1c-29.9 9.2-55.1 21.1-80.7 38.2-11.3 7.5-20.3 14.3-26 19.4-1.9 1.7-4.8 4.2-6.5 5.5-3.2 2.5-20.7 19.9-26.6 26.3-35.2 39.3-62.8 94.5-72.5 145-.2 1.1-.6 3.1-.9 4.5-1.4 7.1-3.4 21.2-4.2 30-1 10.9-1 50.2 0 60 1.4 13 2.8 22.1 5.3 35C33.1 548.8 138.4 656.6 274 689.5c11.1 2.7 30.1 6.2 38.5 7.1 2.8.3 5.6.7 6.3.9 7.8 2.6 73 2.5 85.7 0 1.1-.2 4-.7 6.5-1 16.2-1.9 42.8-8 61-13.9 90.6-29.2 169.3-94.5 220.8-183.1 3.9-6.6 6.9-12.1 6.8-12.2-.1-.2-3.6.4-7.7 1.1-47.7 9-95.4 2.2-131.8-18.6-15.3-8.7-27.2-19.5-36.1-32.6-4.5-6.7-10.3-19.6-11.4-25.6-.3-1.4-.7-3.4-1-4.4-.3-.9-.8-3.9-1.1-6.6-.3-2.7-.7-5.1-.9-5.3-.2-.2-3.4 1-7.2 2.8-18.3 8.3-41.9 16.1-58.9 19.4-2.2.5-4.4.9-5 1.1-.5.1-2.8.5-5 .8-2.3.4-5 .8-6 1-3.2.6-12.8 1.9-15.5 2.1-18.2 1.5-24.5 1.8-35.8 1.7-18.3-.1-35.1-1.5-47.7-3.8-1-.2-3.7-.6-6-1-24.3-3.5-55.4-13.7-80.6-26.4-23.9-12-41.5-24.6-60-43-12.1-12-15.5-16.3-25.6-31.5-21.7-32.8-32.2-77.7-28-120.5.7-6.4 1.8-13 4.3-24 1.5-7 8.1-24.6 12.4-33.5 11.2-22.7 28.8-45.4 49-62.9 6.2-5.4 25.1-19.3 33.3-24.6 3.7-2.3 6.7-4.4 6.7-4.6 0-.8-3-.1-15.3 3.7zM629.1 151c.5 1.6 1.4 4.5 1.9 6.2.9 2.8 3.4 15.7 5.5 27.8 1.4 7.6 1.3 35.7-.1 45.5-1.8 12.9-2.9 17.6-7.4 31-6.5 19.4-17.3 39.3-29.6 54.7l-5.4 6.6 4.3 2.5c5.8 3.5 9.8 7.6 13.2 13.9 2.7 4.8 3 6.2 3 14.3 0 7.7-.4 9.8-2.8 14.9-1.5 3.2-2.5 6.1-2.3 6.4.3.2 3.5-.6 7.3-1.8 30.6-9.7 53.1-34 64.3-69.4 4.6-14.7 6.4-27.2 6.4-44.6.1-15.2-.2-18.4-2.2-28.6-4.3-20.6-18.8-46.5-36.3-64.4-6.6-6.8-19.2-18-20.2-18-.3 0-.1 1.3.4 3z"/></g></svg>
